<svg width="49" height="50" viewBox="0 0 49 50" fill="none" xmlns="http://www.w3.org/2000/svg">
<path d="M11.6956 49.435V20.4096C11.6956 18.4322 11.246 17.0904 10.3469 16.3842C9.44771 15.678 7.96066 15.3249 5.88571 15.3249C4.87129 15.3249 3.94909 15.3955 3.11911 15.5367C2.28913 15.678 1.64358 15.8192 1.18248 15.9605V44.9859C1.18248 46.9633 1.63205 48.2933 2.5312 48.976C3.43034 49.6587 4.91739 50 6.99235 50C8.00677 50 8.92898 49.9412 9.75896 49.8235C10.5889 49.7057 11.2345 49.5763 11.6956 49.435Z" fill="#04FF74"/>
<path d="M2.18537 1.69492C1.10179 2.82486 0.559998 4.1902 0.559998 5.79096C0.559998 7.43879 1.10179 8.82768 2.18537 9.95762C3.26896 11.0876 4.68685 11.6525 6.43903 11.6525C8.19122 11.6525 9.6091 11.0876 10.6927 9.95762C11.7763 8.82768 12.3181 7.43879 12.3181 5.79096C12.3181 4.1902 11.7763 2.82486 10.6927 1.69492C9.6091 0.564975 8.19122 0 6.43903 0C4.68685 0 3.26896 0.564975 2.18537 1.69492Z" fill="#04FF74"/>
<path d="M47.073 15.678C46.0816 15.0188 44.8712 14.6893 43.4418 14.6893C41.5974 14.6893 39.9605 15.0894 38.5311 15.8898C37.6089 20.033 36.6175 24.2702 35.557 28.6017C34.4964 32.9331 33.4359 36.935 32.3754 40.6073H32.0295C31.7529 39.5245 31.3379 38.0297 30.7845 36.1229C30.2312 34.2161 29.6779 32.274 29.1246 30.2966L26.0813 19.1384C25.6202 17.4435 24.9285 16.2782 24.0063 15.6427C23.0841 15.0071 21.8852 14.6893 20.4097 14.6893C19.257 14.6893 18.1848 14.9129 17.1935 15.3602C16.2021 15.8074 15.4297 16.3371 14.8764 16.9492C15.1992 18.4087 15.6372 20.0447 16.1905 21.8573C16.7439 23.67 17.3433 25.5767 17.9889 27.5777C18.6344 29.5786 19.3031 31.5796 19.9947 33.5805C20.6864 35.5815 21.3665 37.4647 22.0351 39.2302C22.7037 40.9958 23.3262 42.5847 23.9026 43.9972C24.479 45.4096 24.9747 46.516 25.3897 47.3164C25.8969 48.258 26.7269 48.9407 27.8796 49.3644C29.0324 49.7881 30.4157 50 32.0295 50C33.4128 50 34.6693 49.847 35.799 49.541C36.9287 49.2349 37.7702 48.8701 38.3236 48.4463C38.923 47.3164 39.5916 45.904 40.3294 44.209C41.0671 42.5141 41.8164 40.6897 42.5772 38.7359C43.338 36.782 44.0758 34.7811 44.7905 32.733C45.5052 30.685 46.1392 28.7665 46.6926 26.9774C47.2459 25.1883 47.6954 23.5876 48.0413 22.1751C48.3871 20.7627 48.56 19.7034 48.56 18.9972C48.56 17.4435 48.0643 16.3371 47.073 15.678Z" fill="#04FF74"/>
</svg>
